<svg xmlns="http://www.w3.org/2000/svg" width="512" height="512" viewBox="0 0 512 512">
  <defs>
    <linearGradient id="bg" x1="0" y1="0" x2="1" y2="1">
      <stop offset="0%" stop-color="#2563eb"/>
      <stop offset="100%" stop-color="#1d4ed8"/>
    </linearGradient>
  </defs>
  <rect width="512" height="512" rx="96" fill="url(#bg)"/>
  <g transform="translate(110,80)" fill="none" stroke="#fff" stroke-width="14" stroke-linecap="round" stroke-linejoin="round">
    <path d="M4 16c0-2.4 1.6-4.6 3.6-5.8L120 1.6c2.1-1.3 4.4-1.8 6.4-1.4l154 45c1.3.4 2.3 1.5 2.7 2.8l12 38c.4 1.2-.1 2.6-1.2 3.4l-62 50a4 4 0 0 0-.5 5.6l48 51c1.2 1.2 1.3 3.1.3 4.5l-46 68c-1.2 1.7-3.5 2.3-5.4 1.4L44.5 184.3C39 181.6 36 175.8 36 169.6V16z" transform="scale(1.5)"/>
    <ellipse cx="120" cy="160" rx="12" ry="8" stroke="#fff" stroke-width="6" fill="#1d4ed8"/>
  </g>
</svg>
